# xmcd
#
# Track frame offsets:
#	150
#	16155
#	22352
#	31787
#	41259
#	60334
#	78242
#	91378
#	100619
#	105449
#	112827
#	120727
#	131160
#	147182
#	165433
#	184608
#	196293
#	204403
#	208918
#	222635
#
# Disc length: 3250 seconds
#
# Revision: 0
# Processed by: cddbd v1.5.1PL0 Copyright (c) Steve Scherf et al.
# Submitted via: audiograbber 1.81.02
#
DISCID=090cb014
DTITLE=EDEN - Weihnachts-Wunderland (www.gerth.de)
DYEAR=2004
DGENRE=Chorus
TTITLE0=Macht hoch die Tür
TTITLE1=Tochter Zion
TTITLE2=Wie soll ich dich empfangen
TTITLE3=Vom Himmel hoch
TTITLE4=Das grosse Fest der Liebe
TTITLE5=Heute wird gebacken
TTITLE6=Winterwunderland
TTITLE7=Leise rieselt der Schnee
TTITLE8=Alle Jahre wieder
TTITLE9=Kling, Glöckchen
TTITLE10=Ihr Kinderlein kommet
TTITLE11=Süsser die Glocken nie klingen
TTITLE12=Weihnachtszeit
TTITLE13=Nicht nur zur Weihnachtszeit
TTITLE14=Ehre sei Gott in der Höhe
TTITLE15=Stille Nacht
TTITLE16=Es ist ein Ros entsprungen
TTITLE17=Herbei, o ihr Gläubigen
TTITLE18=O du fröhliche
TTITLE19=Für alle Kinder - For Every Child
EXTD=
EXTT0=
EXTT1=
EXTT2=
EXTT3=
EXTT4=
EXTT5=
EXTT6=
EXTT7=
EXTT8=
EXTT9=
EXTT10=
EXTT11=
EXTT12=
EXTT13=
EXTT14=
EXTT15=
EXTT16=
EXTT17=
EXTT18=
EXTT19=
PLAYORDER=
